<?xml version="1.0" encoding="utf-8"?>
<!-- Generator: Adobe Illustrator 27.5.0, SVG Export Plug-In . SVG Version: 6.00 Build 0)  -->
<svg version="1.1" xmlns="http://www.w3.org/2000/svg" xmlns:xlink="http://www.w3.org/1999/xlink" x="0px" y="0px"
	 viewBox="0 0 500 500" style="enable-background:new 0 0 500 500;" xml:space="preserve">
<g id="BACKGROUND">
	<rect style="fill:#FFFFFF;" width="500" height="500"/>
</g>
<g id="OBJECTS">
	<g>
		<g>
			
				<ellipse transform="matrix(0.7071 -0.7071 0.7071 0.7071 -90.2156 237.2671)" style="fill:#FFFFFF;" cx="241.299" cy="227.533" rx="200.264" ry="200.264"/>
			<circle style="opacity:0.38;fill:#FFDAB6;" cx="241.299" cy="227.533" r="183.556"/>
			<g>
				<g>
					<path style="fill:#99561A;" d="M353.337,217.168c35.154,54.441,4.743,116.136-6.61,134.804
						c-11.353,18.669-17.383,3.74-17.383,3.74s-9.431,23.719-19.917,23.406c-10.486-0.313-44.722-57.518-24.159-121.248
						C301.259,208.315,342.248,199.995,353.337,217.168z"/>
					<path style="fill:#6B3601;" d="M338.623,255.916c-21.757,56.45-71.151,121.663-96.759,123.174
						c-25.608,1.51-60.624,4.128-112.416-48.264C82.579,283.415,55.404,208.125,83.871,141.54
						c-23.371-7.967-4.497-44.021-3.148-46.073c1.28-1.937,5.085,21.319,19.509,17.698c24.247-30.058,75.82-51.227,166.214-38.936
						C364.427,87.545,363.712,190.841,338.623,255.916z"/>
					<g>
						<defs>
							<path id="XMLID_00000068649463144025096320000016980426267224898960_" d="M338.623,255.916
								c-21.757,56.45-71.151,121.663-96.759,123.174c-25.608,1.51-60.624,4.128-112.416-48.264
								C82.579,283.415,55.404,208.125,83.871,141.54c-23.371-7.967-4.497-44.021-3.148-46.073
								c1.28-1.937,5.085,21.319,19.509,17.698c24.247-30.058,75.82-51.227,166.214-38.936
								C364.427,87.545,363.712,190.841,338.623,255.916z"/>
						</defs>
						<clipPath id="XMLID_00000105389314573912392780000008488797069393483398_">
							<use xlink:href="#XMLID_00000068649463144025096320000016980426267224898960_"  style="overflow:visible;"/>
						</clipPath>
						<path style="opacity:0.44;clip-path:url(#XMLID_00000105389314573912392780000008488797069393483398_);fill:#6B3601;" d="
							M122.721,158.005c3.454,4.029,7.437,7.67,10.146,12.233c6.117,10.306,6.214,25.525,17.055,30.635
							c6.801,3.206,15.336,0.357,20.424-5.179c5.088-5.536,7.271-13.167,8.135-20.636c2.754-23.806-6.281-47.439-17.754-68.479
							c-4.446-8.153-9.47-16.305-16.919-21.85c-15.574-11.593-38.856-3.333-41.022,16.843
							C100.829,119.802,111.148,144.504,122.721,158.005z"/>
						<path style="opacity:0.44;clip-path:url(#XMLID_00000105389314573912392780000008488797069393483398_);fill:#6B3601;" d="
							M99.612,182.8c7.507,1.103,15.3,1.523,22.157,4.773c7.408,3.511,12.956,9.974,17.844,16.555
							c20.322,27.358,33.25,60.155,37.059,94.021c-2.699-7.178-5.399-14.356-8.098-21.534c1.543,11.366,3.086,22.732,4.629,34.098
							c1.133,8.349,2.493,17.217,8.028,23.569c7.063,8.107,19.056,9.861,29.753,8.779c11.834-1.197,23.372-5.224,33.381-11.651
							c1.376,15.809-0.717,32.785-10.507,45.274c-4.515,5.76-10.446,10.275-16.741,14.007
							c-31.215,18.508-71.676,17.713-104.64,2.539c-32.964-15.174-58.786-43.312-76.162-75.171S9.401,250.655,2.7,214.99
							c-2.537-13.501-4.672-27.558-1.168-40.841c4.382-16.615,18.007-30.466,34.549-35.12c12.533-3.526,38.02-3.458,40.368,12.367
							c1.066,7.185-3.528,12.512,0.768,19.955C81.66,179.054,91.451,181.601,99.612,182.8z"/>
						<path style="opacity:0.44;clip-path:url(#XMLID_00000105389314573912392780000008488797069393483398_);fill:#6B3601;" d="
							M356.443,185.694c-33.265,85.784-59.129,108.374-59.129,108.374l26.987,23.498l41.844-49.557L356.443,185.694z"/>
					</g>
					<path style="fill:none;stroke:#E2B393;stroke-width:3.1432;stroke-linecap:round;stroke-miterlimit:10;" d="M352.232,196.316
						c-4.386,49.002-27.492,90.011-27.492,90.011"/>
					<g>
						<path style="fill:#99561A;" d="M253.672,137.09c-0.256-51.923-60.65-79.965-94.439-59.794s-46.32-6.297-49.418,7.566
							s-4.562,57.302,54.573,66.618C223.523,160.796,253.672,137.09,253.672,137.09z"/>
						<g>
							<defs>
								<path id="XMLID_00000153707047647082037240000006685780715652650630_" d="M253.672,137.09
									c-0.256-51.923-60.65-79.965-94.439-59.794s-46.32-6.297-49.418,7.566s-4.562,57.302,54.573,66.618
									C223.523,160.796,253.672,137.09,253.672,137.09z"/>
							</defs>
							<clipPath id="XMLID_00000069363110555963331150000014079159567818382520_">
								<use xlink:href="#XMLID_00000153707047647082037240000006685780715652650630_"  style="overflow:visible;"/>
							</clipPath>
							<path style="clip-path:url(#XMLID_00000069363110555963331150000014079159567818382520_);fill:#AA8533;" d="M245.182,127.319
								c-27.317-43.508-62.588-34.29-89.842-26.274c-27.255,8.016-35.708-5.69-35.708-5.69l2.441,14.107
								c0,0-15.23-4.949-22.846-19.709c-7.615-14.76-4.81,33.336,26.854,31.332c31.663-2.004,51.493-24.752,72.946-1.907
								C220.48,142.023,245.182,127.319,245.182,127.319"/>
							<path style="opacity:0.44;clip-path:url(#XMLID_00000069363110555963331150000014079159567818382520_);fill:#99561A;" d="
								M174.77,121.415c-3.574-1.61-7.255-3.203-11.165-3.486c-6.311-0.456-12.281,2.517-18.282,4.522
								c-6.001,2.005-13.235,2.863-18.124-1.153c1.075,4.745,4.044,9.033,8.108,11.709c-11.103-1.304-20.762-8.834-26.967-18.133
								c-6.205-9.299-9.402-20.257-11.89-31.157c0.894,21.781,5.76,43.393,14.289,63.454c2.965,6.975,6.442,13.871,11.624,19.401
								c10.47,11.173,26.721,15.344,42.021,14.73c10.333-0.415,20.795-2.866,29.41-8.586c8.615-5.721,15.178-15.002,16.122-25.301
								c0.828-9.038-3.402-13.449-11.453-15.676C190.224,129.461,182.598,124.941,174.77,121.415z"/>
						</g>
					</g>
					<g>
						<path style="fill:#99561A;" d="M246.782,145.662c0.179-51.923,42.258-79.965,65.802-59.794
							c23.543,20.17,32.274-6.297,34.432,7.566c2.159,13.863,3.178,57.302-38.025,66.618
							C267.788,169.368,246.782,145.662,246.782,145.662z"/>
						<g>
							<defs>
								<path id="XMLID_00000160888553020385241930000001151017800991287187_" d="M246.782,145.662
									c0.179-51.923,42.258-79.965,65.802-59.794c23.543,20.17,32.274-6.297,34.432,7.566
									c2.159,13.863,3.178,57.302-38.025,66.618C267.788,169.368,246.782,145.662,246.782,145.662z"/>
							</defs>
							<clipPath id="XMLID_00000128483437671734559630000015030367760931007413_">
								<use xlink:href="#XMLID_00000160888553020385241930000001151017800991287187_"  style="overflow:visible;"/>
							</clipPath>
							<path style="clip-path:url(#XMLID_00000128483437671734559630000015030367760931007413_);fill:#AA8533;" d="M252.697,135.89
								c19.034-43.508,43.609-34.29,62.599-26.274c18.99,8.016,24.88-5.69,24.88-5.69l-1.701,14.107c0,0,10.612-4.949,15.918-19.709
								c5.306-14.76,3.351,33.336-18.711,31.332c-22.062-2.004-35.878-24.752-50.826-1.907
								C269.909,150.595,252.697,135.89,252.697,135.89"/>
							<path style="opacity:0.44;clip-path:url(#XMLID_00000128483437671734559630000015030367760931007413_);fill:#99561A;" d="
								M301.758,129.986c2.49-1.61,5.055-3.203,7.78-3.486c4.397-0.456,8.557,2.517,12.738,4.522s9.221,2.863,12.628-1.153
								c-0.749,4.745-2.818,9.033-5.649,11.709c7.736-1.304,14.466-8.834,18.789-18.133c4.324-9.299,6.551-20.257,8.284-31.156
								c-0.623,21.781-4.013,43.392-9.956,63.454c-2.066,6.975-4.488,13.871-8.099,19.401c-7.295,11.173-18.618,15.344-29.279,14.73
								c-7.2-0.415-14.489-2.866-20.492-8.586c-6.003-5.72-10.576-15.002-11.233-25.301c-0.577-9.038,2.37-13.449,7.98-15.676
								C290.99,138.033,296.304,133.513,301.758,129.986z"/>
						</g>
					</g>
					<path style="fill:#F7CA8F;" d="M253.672,137.09c-47.408-62.296-122.795-19.333-115.381,38.849
						c7.414,58.181,84.367,127.786,96.987,128.217c12.62,0.43,89.91-53.359,96.844-114.491
						C339.056,128.533,289.087,93.495,253.672,137.09z"/>
					
						<circle style="fill:none;stroke:#FFFFFF;stroke-width:3.8754;stroke-linecap:round;stroke-miterlimit:10;" cx="206.067" cy="178.394" r="39.115"/>
					
						<circle style="fill:none;stroke:#FFFFFF;stroke-width:3.8754;stroke-linecap:round;stroke-miterlimit:10;" cx="304.52" cy="178.394" r="39.115"/>
					<path style="fill:none;stroke:#FFFFFF;stroke-width:3.8754;stroke-linecap:round;stroke-miterlimit:10;" d="M245.182,178.394
						c9.009-14.561,19.135-9.2,20.223,0"/>
					<path style="fill:#F9BA5D;stroke:#7F3700;stroke-width:2.5836;stroke-linecap:round;stroke-miterlimit:10;" d="
						M253.672,187.349c-16.264,20.574-6.204,35.134,9.1,33.125S253.672,187.349,253.672,187.349z"/>
					<path style="fill:#F9BA5D;stroke:#7F3700;stroke-width:2.5836;stroke-linecap:round;stroke-miterlimit:10;" d="
						M261.481,186.159c14.369,4.79,17.314,34.173,6.379,46.475c0,0-9.238-9.568-14.188-23.238
						C248.723,195.727,250.546,182.514,261.481,186.159z"/>
					<path style="fill:#99561A;" d="M100.976,187.749c56.638,31.492,58.839,100.24,57.607,122.055
						c-1.232,21.815-13.578,11.48-13.578,11.48s2.841,25.367-6.559,30.026c-9.4,4.659-66.529-29.704-78.376-95.614
						C50.859,204.445,83.11,177.815,100.976,187.749z"/>
					<g>
						<defs>
							<path id="XMLID_00000065049669186185044820000013626073405097149064_" d="M100.976,187.749
								c56.638,31.492,58.839,100.24,57.607,122.055c-1.232,21.815-13.578,11.48-13.578,11.48s2.841,25.367-6.559,30.026
								c-9.4,4.659-66.529-29.704-78.376-95.614C50.859,204.445,83.11,177.815,100.976,187.749z"/>
						</defs>
						<clipPath id="XMLID_00000045619817384788014920000018022505483995136644_">
							<use xlink:href="#XMLID_00000065049669186185044820000013626073405097149064_"  style="overflow:visible;"/>
						</clipPath>
						<path style="opacity:0.18;clip-path:url(#XMLID_00000045619817384788014920000018022505483995136644_);fill:#99561A;" d="
							M91.529,296.392c7.549,0.07,14.831-5.278,17.025-12.501c0.796,3.489,5.312,4.343,8.89,4.395
							c8.525,0.123,18.055-0.639,23.786-6.952c4.273-4.707,5.375-11.426,5.943-17.759c0.748-8.323,0.898-16.699,0.449-25.044
							c12.578,7.354,21.102,20.343,25.77,34.145c4.668,13.802,5.861,28.51,6.669,43.058c0.539,9.695,0.844,19.825-3.211,28.648
							c-2.347,5.107-6.029,9.469-9.784,13.652c-4.124,4.594-8.489,9.135-13.917,12.076c-7.135,3.866-15.665,4.654-23.67,3.321
							c-8.005-1.333-15.553-4.666-22.626-8.644c-21.395-12.034-39.054-30.174-52.078-50.981c-4.504-7.196-8.546-14.911-9.799-23.308
							c-1.382-9.266,3.384-31.548,15.884-20.071C70.771,279.526,75.513,296.245,91.529,296.392z"/>
						<path style="opacity:0.18;clip-path:url(#XMLID_00000045619817384788014920000018022505483995136644_);fill:#99561A;" d="
							M133.947,295c1.336,6.649,2.673,13.346,2.726,20.128c0.047,5.916-0.672,17.163-4.447,22.269
							c-5.324,7.202-18.198,4.949-25.664,3.946c1.62,5.887,4.139,11.526,7.441,16.662c2.767,4.303,6.261,8.389,10.956,10.423
							c3.856,1.671,8.237,1.814,12.382,1.122c16.286-2.717,28.324-17.697,32.655-33.63c1.747-6.426,7.897-45.443-5.928-31.944
							c-5.311,5.186-7.129,10.572-15.104,4.677c-5.648-4.175-11.281-7.505-15.03-13.721
							C133.938,294.955,133.942,294.977,133.947,295z"/>
					</g>
					<g>
						<path style="fill:#F9BA5D;" d="M158.57,356.109c-18.079-0.902-25.306,10.996-20.787,21.331
							c4.519,10.336,56.045,4.673,57.829-2.228C197.396,368.313,176.351,356.996,158.57,356.109z"/>
						<path style="fill:#F9BA5D;stroke:#7F3700;stroke-width:2.5836;stroke-linecap:round;stroke-miterlimit:10;" d="
							M150.695,361.591c-10.437,7.43-4.879,20.35-4.879,20.35"/>
						<path style="fill:#F9BA5D;stroke:#7F3700;stroke-width:2.5836;stroke-linecap:round;stroke-miterlimit:10;" d="
							M161.84,364.421c-7.607,5.307-1.769,18.689-1.769,18.689"/>
						<path style="fill:#F9BA5D;stroke:#7F3700;stroke-width:2.5836;stroke-linecap:round;stroke-miterlimit:10;" d="M172.619,366.1
							c-4.478,5.075,0,16.243,0,16.243"/>
					</g>
					<g>
						<path style="fill:#F9BA5D;" d="M282.005,356.109c18.079-0.902,25.306,10.996,20.787,21.331
							c-4.519,10.336-56.045,4.673-57.829-2.228C243.179,368.313,264.224,356.996,282.005,356.109z"/>
						<path style="fill:#F9BA5D;stroke:#7F3700;stroke-width:2.5836;stroke-linecap:round;stroke-miterlimit:10;" d="
							M289.879,361.591c10.437,7.43,4.88,20.35,4.88,20.35"/>
						<path style="fill:#F9BA5D;stroke:#7F3700;stroke-width:2.5836;stroke-linecap:round;stroke-miterlimit:10;" d="
							M278.735,364.421c7.607,5.307,1.769,18.689,1.769,18.689"/>
						<path style="fill:#F9BA5D;stroke:#7F3700;stroke-width:2.5836;stroke-linecap:round;stroke-miterlimit:10;" d="M267.956,366.1
							c4.478,5.075,0,16.243,0,16.243"/>
					</g>
					<g>
						<path style="fill:#6B3601;" d="M302.681,193.301c-1.151,7.613-5.698,13.238-10.156,12.564
							c-4.458-0.674-7.138-7.392-5.987-15.005c1.151-7.613,5.698-13.238,10.156-12.564
							C301.151,178.971,303.832,185.688,302.681,193.301z"/>
						<path style="fill:#FFFFFF;" d="M300.634,185.995c0.071,2.804-1.334,5.115-3.139,5.161c-1.805,0.046-3.325-2.19-3.396-4.995
							c-0.071-2.804,1.334-5.115,3.139-5.161C299.042,180.955,300.563,183.191,300.634,185.995z"/>
					</g>
					<g>
						<path style="fill:#6B3601;" d="M229.822,188.484c-0.457,7.686-4.476,13.7-8.976,13.432c-4.501-0.268-7.779-6.715-7.322-14.401
							c0.457-7.686,4.476-13.7,8.976-13.432C227.001,174.351,230.279,180.798,229.822,188.484z"/>
						<path style="fill:#FFFFFF;" d="M227.122,181.394c0.325,2.786-0.865,5.215-2.658,5.424c-1.793,0.209-3.51-1.88-3.835-4.667
							c-0.325-2.786,0.865-5.215,2.658-5.424C225.081,176.518,226.797,178.607,227.122,181.394z"/>
					</g>
					<path style="opacity:0.56;fill:#F9BA5D;" d="M70.499,280.186c25.67,41.917,38.124,3.968,38.124,3.968
						s15.351,12.217,29.159,3.102c0,0-16.004,14.4-27.043,7.023c0,0-14.489,18.636-24.957,11.124
						C75.313,297.891,70.499,280.186,70.499,280.186z"/>
					<path style="opacity:0.12;fill:#99561A;" d="M75.64,197.672c6.544-5.7,16.052-7.604,24.428-5.333
						c8.376,2.271,15.482,8.504,19.288,16.303c-3.568-5.477-11.879-6.333-17.491-2.98c-5.612,3.353-8.746,9.798-9.897,16.233
						c0.943-2.939,4.019-4.791,7.083-5.159c3.064-0.368,6.136,0.476,9.074,1.424c-7.521,4.678-15.065,9.807-20.055,17.125
						c-6.904,10.122-8.009,22.98-8.9,35.2c0.112-1.531-4.583-6.653-5.493-8.264c-1.809-3.203-3.36-6.553-4.641-10.001
						c-2.293-6.174-4.075-13.082-4.708-19.659C63.194,220.805,66.436,205.688,75.64,197.672z"/>
					<path style="opacity:0.56;fill:#F9BA5D;" d="M81.948,252.145c15.357,9.322,15.638-3.77,15.638-3.77s10.22,5.906,15.932-2.886
						c5.712-8.792,4.63-15.377,4.63-15.377s6.248,21.651-4.621,27.721c-10.869,6.071-12.347-1.995-12.347-1.995
						s-3.21,6.143-9.92,4.36C84.549,258.415,81.948,252.145,81.948,252.145z"/>
					<path style="fill:none;stroke:#E2B393;stroke-width:3.1432;stroke-linecap:round;stroke-miterlimit:10;" d="M134.38,217.509
						c-25.844-36.418-51.287-44.318-68.27-12.18"/>
					<path style="fill:none;stroke:#E2B393;stroke-width:3.1432;stroke-linecap:round;stroke-miterlimit:10;" d="M253.672,120.759
						c-28.041-56.789-72.617-51.996-82.193-48.458"/>
				</g>
				<g>
					<g>
						<path style="fill:#FF5B00;" d="M279.941,386.242h-70.19c-12.618,0-22.847-10.229-22.847-22.847v-6.991
							c0-12.618,10.229-22.847,22.847-22.847h70.19V386.242z"/>
						<path style="opacity:0.42;fill:#8D89F7;" d="M279.937,376.849v9.401h-69.907c-12.768,0-23.127-10.358-23.127-23.127v-6.432
							c0-0.495,0.016-0.99,0.048-1.484c0.766,12.098,10.805,21.642,23.079,21.642H279.937z"/>
						<path style="fill:#C14D14;" d="M397.869,383.026H273.281c-8.002,0-14.49-6.487-14.49-14.49v-17.273
							c0-8.003,6.487-14.49,14.49-14.49h124.588V383.026z"/>
						<path style="fill:none;stroke:#FFDACA;stroke-width:5.5144;stroke-linecap:round;stroke-miterlimit:10;" d="M396.462,336.774
							H281.917c-12.772,0-23.126,10.354-23.126,23.126l0,0c0,12.772,10.354,23.126,23.126,23.126h115.951"/>
						<path style="fill:#F9BA5D;" d="M397.869,375.074H278.477c-7.269,0-13.161-5.892-13.161-13.161v-4.027
							c0-7.269,5.892-13.161,13.161-13.161h119.392V375.074z"/>
					</g>
					<path style="fill:#FCCE5B;" d="M397.279,355.849H291.254c-0.532,0-0.963-0.431-0.963-0.963v-1.147
						c0-0.532,0.431-0.963,0.963-0.963h106.025c0.532,0,0.963,0.431,0.963,0.963v1.147
						C398.241,355.418,397.81,355.849,397.279,355.849z"/>
					<path style="fill:#FCCE5B;" d="M397.279,366.001H291.254c-0.532,0-0.963-0.431-0.963-0.963v-1.147
						c0-0.532,0.431-0.963,0.963-0.963h106.025c0.532,0,0.963,0.431,0.963,0.963v1.147
						C398.241,365.57,397.81,366.001,397.279,366.001z"/>
				</g>
				<g>
					<g>
						<path style="fill:#8D89F7;" d="M256.528,335.796h-70.19c-12.618,0-22.847-10.229-22.847-22.847v-6.991
							c0-12.618,10.229-22.847,22.847-22.847h70.19V335.796z"/>
						<path style="opacity:0.42;fill:#8D89F7;" d="M256.524,326.403v9.401h-69.906c-12.768,0-23.127-10.358-23.127-23.127v-6.432
							c0-0.495,0.016-0.99,0.048-1.484c0.766,12.098,10.805,21.642,23.079,21.642H256.524z"/>
						<path style="fill:#6161D6;" d="M374.456,332.58H249.868c-8.003,0-14.49-6.487-14.49-14.49v-17.273
							c0-8.003,6.487-14.49,14.49-14.49h124.588V332.58z"/>
						<path style="fill:none;stroke:#C3C3FC;stroke-width:5.5144;stroke-linecap:round;stroke-miterlimit:10;" d="M373.05,286.327
							H258.504c-12.772,0-23.126,10.354-23.126,23.126l0,0c0,12.772,10.354,23.126,23.126,23.126h115.951"/>
						<path style="fill:#F9BA5D;" d="M374.456,324.628H255.064c-7.269,0-13.161-5.892-13.161-13.161v-4.027
							c0-7.269,5.892-13.161,13.161-13.161h119.392V324.628z"/>
					</g>
					<path style="fill:#FCCE5B;" d="M373.866,305.403H267.841c-0.532,0-0.963-0.431-0.963-0.963v-1.147
						c0-0.532,0.431-0.963,0.963-0.963h106.025c0.532,0,0.963,0.431,0.963,0.963v1.147
						C374.829,304.972,374.398,305.403,373.866,305.403z"/>
					<path style="fill:#FCCE5B;" d="M373.866,315.555H267.841c-0.532,0-0.963-0.431-0.963-0.963v-1.148
						c0-0.532,0.431-0.963,0.963-0.963h106.025c0.532,0,0.963,0.431,0.963,0.963v1.148
						C374.829,315.124,374.398,315.555,373.866,315.555z"/>
				</g>
				<g>
					<path style="fill:#F9BA5D;" d="M448.423,170.761c-9.227,19.149-25.783,20.701-33.984,20.16
						c-3.046-0.201-5.904,1.453-7.229,4.204l-2.668,5.537l-31.172-15.021l2.668-5.538c1.325-2.75,0.839-6.015-1.216-8.273
						c-5.53-6.076-14.626-19.988-5.4-39.137c12.599-26.147,40.788-21.142,55.454-14.075
						C439.532,125.681,461.022,144.614,448.423,170.761z"/>
					<g>
						<defs>
							<path id="SVGID_1_" d="M448.423,170.761c-9.227,19.149-25.783,20.701-33.984,20.16c-3.046-0.201-5.904,1.453-7.229,4.204
								l-2.668,5.537l-31.172-15.021l2.668-5.538c1.325-2.75,0.839-6.015-1.216-8.273c-5.53-6.076-14.626-19.988-5.4-39.137
								c12.599-26.147,40.788-21.142,55.454-14.075C439.532,125.681,461.022,144.614,448.423,170.761z"/>
						</defs>
						<clipPath id="SVGID_00000057109996143863816660000013023641540349265301_">
							<use xlink:href="#SVGID_1_"  style="overflow:visible;"/>
						</clipPath>
						<path style="opacity:0.62;clip-path:url(#SVGID_00000057109996143863816660000013023641540349265301_);fill:#F9BA5D;" d="
							M394.35,102.943c-6.294,2.624-7.715,10.789-7.885,17.606c-0.461,18.411,1.904,37.834,12.718,52.742
							c12.943,17.842,35.737,25.961,57.682,28.025c-18.129,20.684-48.105,30.175-74.836,23.694c-4.991-1.21-9.907-2.953-14.21-5.756
							c-5.497-3.58-9.796-8.768-13.178-14.388c-7.87-13.08-11.016-28.547-11.583-43.801c-0.518-13.935,1.099-28.246,7.222-40.775
							c6.122-12.529,17.233-23.089,30.825-26.209c13.591-3.12,29.368,2.45,36.137,14.642c-1.182,0.146-2.365,0.292-3.547,0.439"/>
					</g>
					<path style="fill:none;stroke:#FFFFFF;stroke-width:3;stroke-linecap:round;stroke-miterlimit:10;" d="M382.919,192.557
						c4.863-37.073,16.926-53.895,23.655-49.091c6.729,4.804,3.684,23.629-4.036,21.08c-7.72-2.549,6.63-26.465,14.741-13.971
						c8.111,12.494-25.57,44.267-25.874,46.071"/>
					<path style="fill:#38200B;" d="M380.236,217.735l-5.073-2.444c-7.205-3.472-10.232-12.128-6.76-19.333l4.971-10.317
						l31.166,15.018l-4.971,10.317C396.097,218.18,387.441,221.207,380.236,217.735z"/>
					<path style="fill:#513118;" d="M400.381,211.034l-32.112-15.474c-0.679-0.327-0.964-1.143-0.637-1.821l1.469-3.049
						c0.327-0.679,1.142-0.964,1.821-0.637l32.112,15.474c0.679,0.327,0.964,1.142,0.637,1.821l-1.469,3.049
						C401.875,211.076,401.06,211.361,400.381,211.034z"/>
				</g>
			</g>
		</g>
	</g>
	<g>
		<text transform="matrix(1 0 0 1 112.1558 436.1514)"><tspan x="0" y="0" style="fill:#8D89F7; font-family:'LuckiestGuy-Regular'; font-size:54.3741px;">NERD</tspan><tspan x="127.994" y="0" style="font-family:'LuckiestGuy-Regular'; font-size:54.3741px;"> LOGO</tspan></text>
		<g>
			
				<text transform="matrix(1 0 0 1 165.6328 459.3518)" style="fill:#F9BA5D; font-family:'LuckiestGuy-Regular'; font-size:19.6403px;">YOUR SLOGAN HERE</text>
		</g>
	</g>
</g>
</svg>
